<?xml version="1.0" encoding="utf-8"?>
<!-- Generator: Adobe Illustrator 22.1.0, SVG Export Plug-In . SVG Version: 6.00 Build 0)  -->
<svg version="1.1" id="Layer_1" xmlns="http://www.w3.org/2000/svg" xmlns:xlink="http://www.w3.org/1999/xlink" x="0px" y="0px"
	 viewBox="0 0 731.6 180.3" style="enable-background:new 0 0 731.6 180.3;" xml:space="preserve">
<style type="text/css">
	.st0{fill:#1B325F;}
	.st1{clip-path:url(#SVGID_2_);}
	.st2{fill:#1A8922;}
</style>
<g>
	<g>
		<path class="st0" d="M249.7,33.4h28.9l39.9,115.1h-32.1l-7-22.5h-30.6l-6.8,22.5h-32.3L249.7,33.4z M274.3,104.9l-10.2-35.7
			l-10.7,35.7H274.3z"/>
		<path class="st0" d="M328,148.5V33.4h78.9v27.6h-47.3v19.1h38.6v25.6h-38.6v42.8H328z"/>
		<path class="st0" d="M441.6,33.4h28.9l39.9,115.1h-32.1l-7-22.5h-30.6l-6.8,22.5h-32.3L441.6,33.4z M466.3,104.9L456,69.2
			l-10.7,35.7H466.3z"/>
		<path class="st0" d="M594,143c-4,2.1-8.2,3.6-12.7,4.7c-4.5,1.1-9.2,1.6-14.2,1.6c-8.8,0-16.7-1.6-23.8-4.9
			c-7.1-3.3-13.2-7.7-18.3-13.1c-5.1-5.5-9-11.7-11.8-18.7c-2.8-7-4.2-14.3-4.2-21.7c0-7.6,1.5-14.9,4.4-21.9
			c2.9-7,7-13.2,12.2-18.6c5.2-5.4,11.5-9.7,18.6-12.9c7.2-3.2,15-4.8,23.6-4.8c8.8,0,16.7,1.7,23.8,5.1s13.2,7.9,18.3,13.4
			c5.1,5.5,9,11.8,11.8,18.8c2.8,7,4.1,14.2,4.1,21.6c0,7.1-1.3,14-3.8,20.5c-2.5,6.5-6.1,12.4-10.8,17.6l17.5,19h-29.5L594,143z
			 M567.4,121.2c2.4,0,4.4-0.2,6-0.6l-19-20.8h29.5l6.3,7c1.2-2.5,2.1-5.1,2.6-7.8c0.5-2.7,0.8-5.5,0.8-8.3c0-3.9-0.5-7.6-1.6-11.3
			c-1.1-3.6-2.7-6.8-4.9-9.6c-2.2-2.8-5-5.1-8.3-6.7c-3.3-1.7-7.2-2.5-11.6-2.5c-4.5,0-8.5,0.9-11.8,2.7c-3.3,1.8-6,4.1-8.2,7
			c-2.2,2.9-3.8,6.1-4.8,9.7c-1,3.6-1.5,7.3-1.5,11.1c0,3.9,0.5,7.6,1.6,11.3c1.1,3.6,2.7,6.8,4.9,9.6c2.2,2.8,4.9,5.1,8.2,6.7
			C559,120.4,562.9,121.2,567.4,121.2z"/>
		<path class="st0" d="M655.1,33.4l20.6,49.8l21.1-49.8h34.4l-39.7,77v38.1H660v-38.4l-39.1-76.7H655.1z"/>
	</g>
	<g>
		<defs>
			<path id="SVGID_1_" d="M158.6,180.1H19.4c-10.9,0-19.8-8.9-19.8-19.8V21.1c0-10.9,8.9-19.8,19.8-19.8h139.1
				c10.9,0,19.8,8.9,19.8,19.8v139.1C178.4,171.2,169.5,180.1,158.6,180.1z"/>
		</defs>
		<clipPath id="SVGID_2_">
			<use xlink:href="#SVGID_1_"  style="overflow:visible;"/>
		</clipPath>
		<g class="st1">
			<path class="st0" d="M50.1-0.1C37.3,13.6,29,30.1,20.8,46.8c-8.1,16.5-15.3,33.4-20.9,51c-0.1,0.3-0.2,0.5-0.3,0.7
				c0-32.6,0-65.2,0-97.8c0-0.7,0.1-0.9,0.9-0.9C17-0.1,33.5-0.1,50.1-0.1z"/>
			<path class="st0" d="M35.8,104.9c39.2-0.6,78.5,13.5,90.4,75.2c-35.5,0-71,0-105.9,0C24.4,154.9,26.4,129.2,35.8,104.9z"/>
			<path class="st0" d="M104,94.5C86.5,80,66.1,76.3,44.5,76.2c6.5-17.6,15.3-33.9,25.9-49.4C84.9,47.7,95.4,70.4,104,94.5z"/>
		</g>
		<g class="st1">
			<path class="st2" d="M179.9-0.1c0,60.1,0,120.1,0,180.2c-7.7,0-15.3,0-22.9,0c4-9.4,2-18.9,0.4-28.4c-3.1-19-9-37.3-15.4-55.4
				c-5.9-16.7-12.9-32.9-20.8-48.8C113.6,32.1,105.8,16.8,95,3.2c-0.9-1.1-1.8-2.2-2.7-3.3C121.5-0.1,150.7-0.1,179.9-0.1z"/>
		</g>
	</g>
</g>
</svg>
